# xmcd
# 
# Track frame offsets:
#     150
#     28660
#     96745
#     169962
#     219877
# 
# Disc length: 4062
# 
# Revision: 6
# Processed by: cddbd v1.5.2PL0 Copyright (c) Steve Scherf et al.
# Submitted via: fre:ac v1.1beta1pre5
# 
DISCID=420fdc05
DTITLE=London Symphony Orchestra and Richard Hickox - Vaughan Williams‧A London Symphony
DYEAR=2001
DGENRE=Classical
TTITLE0=Butterworth‧The Banks of Green WIllow
TTITLE1=Vaughan Williams‧A London Symphony：I. Lento–Allegro risoluto
TTITLE2=Vaughan Williams‧A London Symphony：II. Lento
TTITLE3=Vaughan Williams‧A London Symphony：III. Scherzo（Nocturne）–
TTITLE4=Vaughan Williams‧A London Symphony：IV. Andante con moto–
EXTD=YEAR: 2000
EXTT0=
EXTT1=
EXTT2=
EXTT3=
EXTT4=
PLAYORDER=
